<?xml version="1.0" encoding="UTF-8" standalone="no"?>
<!-- Created with Inkscape (http://www.inkscape.org/) -->

<svg
   version="1.1"
   id="svg2"
   width="94.871704"
   height="132.53015"
   viewBox="0 0 94.871704 132.53015"
   sodipodi:docname="81510.eps"
   xmlns:inkscape="http://www.inkscape.org/namespaces/inkscape"
   xmlns:sodipodi="http://sodipodi.sourceforge.net/DTD/sodipodi-0.dtd"
   xmlns="http://www.w3.org/2000/svg"
   xmlns:svg="http://www.w3.org/2000/svg">
  <defs
     id="defs6" />
  <sodipodi:namedview
     id="namedview4"
     pagecolor="#505050"
     bordercolor="#eeeeee"
     borderopacity="1"
     inkscape:showpageshadow="0"
     inkscape:pageopacity="0"
     inkscape:pagecheckerboard="0"
     inkscape:deskcolor="#505050"
     showgrid="false" />
  <g
     id="g10"
     inkscape:groupmode="layer"
     inkscape:label="Page 1"
     transform="matrix(1.3333333,0,0,-1.3333333,-1018.7284,169.56067)">
    <g
       id="g12"
       transform="scale(0.1)">
      <path
         d="m 7660.46,1097 c 110.47,43.1 216.66,95.1 320.17,152.9 -5.75,2.3 -11.48,4.7 -17.21,7 68.09,-190.5 141.78,-378.9 221.95,-564.599 2.4,-5.602 11,-8.699 16.56,-6.801 45.55,15.602 91.39,27.199 138.91,34.902 -6.07,6 -12.15,12.098 -18.22,18.2 -50.08,-143.801 -92.42,-290.102 -123.04,-439.301 6.92,3.898 13.84,7.801 20.76,11.801 -145.43,56.3 -291.09,112 -436.67,168 1.26,-9.704 2.53,-19.301 3.79,-29 29.5,22.097 59,44.199 88.46,66.398 13.39,10.102 31.63,20.398 37.47,37.199 13.56,39.203 -36.98,106.403 -52.42,138.903 -31.18,65.597 -62.37,131.097 -93.55,196.699 -15.58,32.801 -31.18,65.601 -46.77,98.398 -9.94,20.901 -56.3,90.501 -47.41,112.101 -4.96,-3.8 -9.92,-7.5 -14.88,-11.3 1.78,-0.2 3.56,-0.3 5.35,-0.4 19.81,-1.6 19.72,29.3 0,30.8 -1.79,0.2 -3.57,0.3 -5.35,0.4 -7.33,0.6 -12.41,-5.3 -14.88,-11.3 -14.54,-35.5 27.42,-87.2 42.11,-118 26.98,-56.602 53.96,-113.199 80.93,-169.801 26.99,-56.597 53.97,-113.199 80.95,-169.797 20.71,-43.402 38.65,-79.101 -1.85,-118.3 -21.43,-20.801 -50.13,-36.903 -74.16,-54.602 -11.41,-8.398 -9.4,-23.801 3.79,-29 145.36,-56.699 290.62,-113.598 436.12,-170 8.12,-3.098 19.06,3.602 20.76,11.801 30.63,149.301 69.04,296.398 119.06,440.398 4.08,11.801 -8.05,19.903 -18.22,18.203 -47.48,-7.601 -93.48,-19.101 -138.84,-35.101 5.53,-2.199 11.05,-4.5 16.57,-6.699 -81.11,182.8 -156.36,368.098 -224.69,555.998 -2.59,7.1 -10.21,11 -17.21,7 -102.3,-57.8 -207.87,-109.1 -314.99,-157.3 -8.81,-4 -2.48,-19.4 6.65,-15.8 v 0"
         style="fill:#fff6d5;fill-opacity:1;fill-rule:nonzero;stroke:none"
         id="path274"
         inkscape:export-filename="../../../../../home/avidu/Downloads/path274.svg"
         inkscape:export-xdpi="96"
         inkscape:export-ydpi="96" />
    </g>
  </g>
</svg>
